<svg xmlns="http://www.w3.org/2000/svg" viewBox="0 0 1600 1000"><defs><linearGradient id="sky" x2="0" y2="1"><stop stop-color="#14142d"/><stop offset="1" stop-color="#533650"/></linearGradient><radialGradient id="moon"><stop stop-color="#f0b6d0" stop-opacity=".28"/><stop offset="1" stop-color="#f0b6d0" stop-opacity="0"/></radialGradient></defs><rect width="1600" height="1000" fill="url(#sky)"/><ellipse cx="1200" cy="240" rx="480" ry="400" fill="url(#moon)"/><circle cx="1210" cy="180" r="55" fill="#f0b6d0" opacity=".85"/><path d="M0 670 180 470 340 630 600 360 810 615 1060 450 1260 650 1460 390 1600 510V1000H0Z" fill="#091321" opacity=".65"/><path d="M0 740 300 640 580 765 900 620 1180 780 1500 635 1600 670V1000H0Z" fill="#091321" opacity=".7"/><g fill="#14142d" stroke="#ce859f" stroke-width="3" opacity=".9"><path d="M230 785V630L400 535 570 630V785Z"/><path d="M205 635Q285 605 400 505Q515 605 595 635L575 655H225Z" fill="#533650"/><path d="M250 710H550M350 640V785M450 640V785"/><rect x="375" y="660" width="50" height="125" fill="#f0b6d0" opacity=".15"/></g><g fill="#ce859f" opacity=".55"><path d="M685 470H705V765H685ZM895 470H915V765H895Z"/><path d="M645 420Q800 450 955 420L946 450Q800 477 654 450Z"/><path d="M660 490H940V509H660Z"/></g><path d="M620 1000 760 670H840L990 1000Z" fill="#f0b6d0" opacity=".09"/><path d="M720 770H900M680 860H940M640 950H980" stroke="#f0b6d0" opacity=".15"/><path d="M0 95Q160 165 215 290Q260 400 420 370M160 200Q290 105 480 140M240 328Q360 215 550 240" fill="none" stroke="#2a2032" stroke-width="35"/><g fill="#f0b6d0" opacity="0.35"><ellipse cx="0" cy="60" rx="9" ry="4.95" transform="rotate(0 0 60)"/></g><g fill="#f0b6d0" opacity="0.47"><ellipse cx="79" cy="113" rx="12" ry="6.6000000000000005" transform="rotate(23 79 113)"/></g><g fill="#f0b6d0" opacity="0.59"><ellipse cx="158" cy="166" rx="15" ry="8.25" transform="rotate(46 158 166)"/></g><g fill="#f0b6d0" opacity="0.71"><ellipse cx="237" cy="219" rx="18" ry="9.9" transform="rotate(69 237 219)"/></g><g fill="#f0b6d0" opacity="0.35"><ellipse cx="316" cy="272" rx="21" ry="11.55" transform="rotate(92 316 272)"/></g><g fill="#f0b6d0" opacity="0.47"><ellipse cx="395" cy="325" rx="9" ry="4.95" transform="rotate(115 395 325)"/></g><g fill="#f0b6d0" opacity="0.59"><ellipse cx="474" cy="378" rx="12" ry="6.6000000000000005" transform="rotate(138 474 378)"/></g><g fill="#f0b6d0" opacity="0.71"><ellipse cx="553" cy="61" rx="15" ry="8.25" transform="rotate(161 553 61)"/></g><g fill="#f0b6d0" opacity="0.35"><ellipse cx="42" cy="114" rx="18" ry="9.9" transform="rotate(184 42 114)"/></g><g fill="#f0b6d0" opacity="0.47"><ellipse cx="121" cy="167" rx="21" ry="11.55" transform="rotate(207 121 167)"/></g><g fill="#f0b6d0" opacity="0.59"><ellipse cx="200" cy="220" rx="9" ry="4.95" transform="rotate(230 200 220)"/></g><g fill="#f0b6d0" opacity="0.71"><ellipse cx="279" cy="273" rx="12" ry="6.6000000000000005" transform="rotate(253 279 273)"/></g><g fill="#f0b6d0" opacity="0.35"><ellipse cx="358" cy="326" rx="15" ry="8.25" transform="rotate(276 358 326)"/></g><g fill="#f0b6d0" opacity="0.47"><ellipse cx="437" cy="379" rx="18" ry="9.9" transform="rotate(299 437 379)"/></g><g fill="#f0b6d0" opacity="0.59"><ellipse cx="516" cy="62" rx="21" ry="11.55" transform="rotate(322 516 62)"/></g><g fill="#f0b6d0" opacity="0.71"><ellipse cx="5" cy="115" rx="9" ry="4.95" transform="rotate(345 5 115)"/></g><g fill="#f0b6d0" opacity="0.35"><ellipse cx="84" cy="168" rx="12" ry="6.6000000000000005" transform="rotate(368 84 168)"/></g><g fill="#f0b6d0" opacity="0.47"><ellipse cx="163" cy="221" rx="15" ry="8.25" transform="rotate(391 163 221)"/></g><g fill="#f0b6d0" opacity="0.59"><ellipse cx="242" cy="274" rx="18" ry="9.9" transform="rotate(414 242 274)"/></g><g fill="#f0b6d0" opacity="0.71"><ellipse cx="321" cy="327" rx="21" ry="11.55" transform="rotate(437 321 327)"/></g><g fill="#f0b6d0" opacity="0.35"><ellipse cx="400" cy="380" rx="9" ry="4.95" transform="rotate(460 400 380)"/></g><g fill="#f0b6d0" opacity="0.47"><ellipse cx="479" cy="63" rx="12" ry="6.6000000000000005" transform="rotate(483 479 63)"/></g><g fill="#f0b6d0" opacity="0.59"><ellipse cx="558" cy="116" rx="15" ry="8.25" transform="rotate(506 558 116)"/></g><g fill="#f0b6d0" opacity="0.71"><ellipse cx="47" cy="169" rx="18" ry="9.9" transform="rotate(529 47 169)"/></g><g fill="#f0b6d0" opacity="0.35"><ellipse cx="126" cy="222" rx="21" ry="11.55" transform="rotate(552 126 222)"/></g><g fill="#f0b6d0" opacity="0.47"><ellipse cx="205" cy="275" rx="9" ry="4.95" transform="rotate(575 205 275)"/></g><g fill="#f0b6d0" opacity="0.59"><ellipse cx="284" cy="328" rx="12" ry="6.6000000000000005" transform="rotate(598 284 328)"/></g><g fill="#f0b6d0" opacity="0.71"><ellipse cx="363" cy="381" rx="15" ry="8.25" transform="rotate(621 363 381)"/></g><g fill="#f0b6d0" opacity="0.35"><ellipse cx="442" cy="64" rx="18" ry="9.9" transform="rotate(644 442 64)"/></g><g fill="#f0b6d0" opacity="0.47"><ellipse cx="521" cy="117" rx="21" ry="11.55" transform="rotate(667 521 117)"/></g><g fill="#f0b6d0" opacity="0.59"><ellipse cx="10" cy="170" rx="9" ry="4.95" transform="rotate(690 10 170)"/></g><g fill="#f0b6d0" opacity="0.71"><ellipse cx="89" cy="223" rx="12" ry="6.6000000000000005" transform="rotate(713 89 223)"/></g><g fill="#f0b6d0" opacity="0.35"><ellipse cx="168" cy="276" rx="15" ry="8.25" transform="rotate(736 168 276)"/></g><g fill="#f0b6d0" opacity="0.47"><ellipse cx="247" cy="329" rx="18" ry="9.9" transform="rotate(759 247 329)"/></g><g fill="#f0b6d0" opacity="0.59"><ellipse cx="326" cy="382" rx="21" ry="11.55" transform="rotate(782 326 382)"/></g><g fill="#f0b6d0" opacity="0.71"><ellipse cx="405" cy="65" rx="9" ry="4.95" transform="rotate(805 405 65)"/></g><g fill="#f0b6d0" opacity="0.35"><ellipse cx="484" cy="118" rx="12" ry="6.6000000000000005" transform="rotate(828 484 118)"/></g><g fill="#f0b6d0" opacity="0.47"><ellipse cx="563" cy="171" rx="15" ry="8.25" transform="rotate(851 563 171)"/></g><g fill="#f0b6d0" opacity="0.59"><ellipse cx="52" cy="224" rx="18" ry="9.9" transform="rotate(874 52 224)"/></g><g fill="#f0b6d0" opacity="0.71"><ellipse cx="131" cy="277" rx="21" ry="11.55" transform="rotate(897 131 277)"/></g><g fill="#f0b6d0" opacity="0.35"><ellipse cx="210" cy="330" rx="9" ry="4.95" transform="rotate(920 210 330)"/></g><g fill="#f0b6d0" opacity="0.47"><ellipse cx="289" cy="383" rx="12" ry="6.6000000000000005" transform="rotate(943 289 383)"/></g><g fill="#f0b6d0" opacity="0.59"><ellipse cx="368" cy="66" rx="15" ry="8.25" transform="rotate(966 368 66)"/></g><g fill="#f0b6d0" opacity="0.71"><ellipse cx="447" cy="119" rx="18" ry="9.9" transform="rotate(989 447 119)"/></g><g fill="#f0b6d0" opacity="0.35"><ellipse cx="526" cy="172" rx="21" ry="11.55" transform="rotate(1012 526 172)"/></g><g fill="#f0b6d0" opacity="0.47"><ellipse cx="15" cy="225" rx="9" ry="4.95" transform="rotate(1035 15 225)"/></g><g fill="#f0b6d0" opacity="0.59"><ellipse cx="94" cy="278" rx="12" ry="6.6000000000000005" transform="rotate(1058 94 278)"/></g><g fill="#f0b6d0" opacity="0.71"><ellipse cx="173" cy="331" rx="15" ry="8.25" transform="rotate(1081 173 331)"/></g><g fill="#f0b6d0" opacity="0.35"><ellipse cx="252" cy="384" rx="18" ry="9.9" transform="rotate(1104 252 384)"/></g><g fill="#f0b6d0" opacity="0.47"><ellipse cx="331" cy="67" rx="21" ry="11.55" transform="rotate(1127 331 67)"/></g><g fill="#f0b6d0" opacity="0.59"><ellipse cx="410" cy="120" rx="9" ry="4.95" transform="rotate(1150 410 120)"/></g><g fill="#f0b6d0" opacity="0.71"><ellipse cx="489" cy="173" rx="12" ry="6.6000000000000005" transform="rotate(1173 489 173)"/></g><g fill="#f0b6d0" opacity="0.35"><ellipse cx="568" cy="226" rx="15" ry="8.25" transform="rotate(1196 568 226)"/></g><g fill="#f0b6d0" opacity="0.47"><ellipse cx="57" cy="279" rx="18" ry="9.9" transform="rotate(1219 57 279)"/></g><g fill="#f0b6d0" opacity="0.59"><ellipse cx="136" cy="332" rx="21" ry="11.55" transform="rotate(1242 136 332)"/></g><g fill="#f0b6d0" opacity="0.71"><ellipse cx="215" cy="385" rx="9" ry="4.95" transform="rotate(1265 215 385)"/></g><g fill="#f0b6d0" opacity="0.35"><ellipse cx="294" cy="68" rx="12" ry="6.6000000000000005" transform="rotate(1288 294 68)"/></g><g fill="#f0b6d0" opacity="0.47"><ellipse cx="373" cy="121" rx="15" ry="8.25" transform="rotate(1311 373 121)"/></g><g fill="#f0b6d0" opacity="0.59"><ellipse cx="452" cy="174" rx="18" ry="9.9" transform="rotate(1334 452 174)"/></g><g fill="#f0b6d0" opacity="0.71"><ellipse cx="531" cy="227" rx="21" ry="11.55" transform="rotate(1357 531 227)"/></g><g fill="#f0b6d0" opacity="0.35"><ellipse cx="20" cy="280" rx="9" ry="4.95" transform="rotate(1380 20 280)"/></g><g fill="#f0b6d0" opacity="0.47"><ellipse cx="99" cy="333" rx="12" ry="6.6000000000000005" transform="rotate(1403 99 333)"/></g><g fill="#f0b6d0" opacity="0.59"><ellipse cx="178" cy="386" rx="15" ry="8.25" transform="rotate(1426 178 386)"/></g><g fill="#f0b6d0" opacity="0.71"><ellipse cx="257" cy="69" rx="18" ry="9.9" transform="rotate(1449 257 69)"/></g><g fill="#f0b6d0" opacity="0.35"><ellipse cx="336" cy="122" rx="21" ry="11.55" transform="rotate(1472 336 122)"/></g><g fill="#080e18" opacity=".75"><path d="M40 1000V440L150 780H80L170 920H65V1000ZM1490 1000V390L1580 670H1520L1600 900H1515V1000Z"/></g></svg>